<?xml version="1.0" standalone="no"?><!DOCTYPE svg PUBLIC "-//W3C//DTD SVG 1.1//EN" "http://www.w3.org/Graphics/SVG/1.1/DTD/svg11.dtd"><svg t="1539057053006" class="icon" style="" viewBox="0 0 1024 1024" version="1.1" xmlns="http://www.w3.org/2000/svg" p-id="5153" xmlns:xlink="http://www.w3.org/1999/xlink" width="32" height="32"><defs><style type="text/css"></style></defs><path d="M927.017 412.441c-19.33 0-35 15.67-35 35v84.62c0 10.356-6.739 63.226-37.873 114.171-35.099 57.435-86.128 86.556-151.671 86.556H318.561c-63.287 0-112.353-25.945-145.836-77.114-30.606-46.771-38.771-99.707-38.771-123.612l-14.339-7.952c8.694-6.368 14.339-16.652 14.339-28.254v-4.413c0-5.783 0.708-57.921 25.255-107.145 29.966-60.091 83.58-90.56 159.353-90.56h438.554l-81.188 94.495c-12.598 14.662-10.924 36.759 3.738 49.356a34.853 34.853 0 0 0 22.793 8.453c9.849 0 19.641-4.135 26.563-12.191l130.857-152.304c0.073-0.085 0.139-0.172 0.211-0.257a35.83 35.83 0 0 0 3.368-4.737c0.123-0.208 0.243-0.418 0.361-0.629 0.151-0.268 0.301-0.537 0.446-0.809 0.105-0.198 0.205-0.397 0.305-0.596 0.148-0.292 0.295-0.584 0.434-0.88 0.082-0.174 0.158-0.349 0.237-0.524 0.147-0.325 0.293-0.651 0.43-0.981 0.05-0.122 0.096-0.245 0.145-0.368a34.788 34.788 0 0 0 1.644-5.277c0.031-0.137 0.065-0.273 0.095-0.41 0.072-0.338 0.135-0.679 0.197-1.02 0.038-0.206 0.076-0.411 0.11-0.618 0.05-0.304 0.094-0.611 0.136-0.918a32.612 32.612 0 0 0 0.252-2.504c0.015-0.239 0.032-0.477 0.043-0.717 0.017-0.374 0.024-0.749 0.028-1.124 0.002-0.148 0.011-0.293 0.011-0.441l-0.003-0.105a35.205 35.205 0 0 0-0.042-1.657c-0.008-0.165-0.025-0.328-0.035-0.493-0.024-0.38-0.05-0.76-0.087-1.139-0.028-0.292-0.066-0.581-0.101-0.871-0.03-0.244-0.058-0.487-0.093-0.73a39.134 39.134 0 0 0-0.478-2.611c-0.038-0.171-0.078-0.342-0.118-0.513-0.086-0.36-0.175-0.719-0.272-1.074a32.621 32.621 0 0 0-0.127-0.446c-0.106-0.371-0.214-0.74-0.332-1.106-0.041-0.126-0.085-0.25-0.127-0.376a34.48 34.48 0 0 0-0.401-1.146c-0.031-0.083-0.066-0.166-0.098-0.249a34.704 34.704 0 0 0-1.715-3.785c-0.05-0.095-0.096-0.192-0.147-0.287-0.151-0.28-0.313-0.554-0.471-0.83-0.115-0.201-0.226-0.403-0.346-0.601-0.151-0.251-0.31-0.496-0.467-0.742-0.138-0.216-0.273-0.434-0.416-0.648-0.158-0.237-0.323-0.468-0.487-0.701-0.152-0.217-0.303-0.434-0.461-0.648-0.168-0.228-0.342-0.45-0.516-0.674-0.164-0.211-0.327-0.423-0.496-0.631-0.177-0.217-0.359-0.43-0.541-0.643-0.123-0.144-0.24-0.292-0.366-0.435L728.73 87.115c-12.78-14.502-34.896-15.898-49.399-3.117-14.502 12.78-15.896 34.897-3.116 49.399l79.617 90.34H318.561c-130.18 0-192.576 70.325-221.996 129.321-31.04 62.245-32.612 126.195-32.612 138.383v4.413c0 11.602 5.646 21.886 14.339 28.254l-14.339 7.952c0 39.317 13.146 105.32 50.198 161.941 32.474 49.627 94.299 108.785 204.41 108.785h383.912c90.304 0 163.404-41.514 211.401-120.054 35.072-57.392 48.143-122.877 48.143-150.673v-84.62c0-19.328-15.67-34.998-35-34.998z" p-id="5154" fill="#444444"/>
<path d="M493.063 374.342v270.607c0 19.33 15.67 35 35 35s35-15.67 35-35V374.342c0-19.33-15.67-35-35-35s-35 15.67-35 35z" p-id="5155" fill="#444444"/>
</svg>