<?xml version="1.0" standalone="no"?><!DOCTYPE svg PUBLIC "-//W3C//DTD SVG 1.1//EN" "http://www.w3.org/Graphics/SVG/1.1/DTD/svg11.dtd"><svg t="1539056700563" class="icon" style="" viewBox="0 0 1024 1024" version="1.1" xmlns="http://www.w3.org/2000/svg" p-id="3032" xmlns:xlink="http://www.w3.org/1999/xlink" width="32" height="32"><defs><style type="text/css"></style></defs><path d="M953.191 833.482c0.195-0.223 0.392-0.444 0.581-0.671 0.15-0.18 0.293-0.365 0.439-0.548 0.211-0.264 0.422-0.526 0.625-0.795 0.119-0.158 0.232-0.321 0.348-0.481 0.216-0.297 0.432-0.594 0.637-0.896 0.106-0.156 0.206-0.316 0.309-0.473 0.203-0.31 0.407-0.62 0.6-0.935 0.108-0.177 0.21-0.358 0.315-0.537 0.175-0.299 0.351-0.597 0.517-0.899 0.121-0.22 0.233-0.444 0.349-0.667 0.138-0.265 0.277-0.528 0.407-0.796 0.133-0.273 0.258-0.551 0.384-0.828 0.1-0.221 0.204-0.44 0.3-0.663 0.139-0.322 0.268-0.648 0.397-0.974 0.072-0.182 0.146-0.362 0.215-0.545 0.134-0.356 0.258-0.716 0.381-1.077 0.054-0.159 0.11-0.317 0.161-0.477 0.121-0.375 0.233-0.753 0.342-1.134 0.043-0.151 0.087-0.301 0.129-0.453 0.103-0.38 0.198-0.762 0.288-1.147a34.008 34.008 0 0 0 0.436-2.154 36.066 36.066 0 0 0 0.351-2.682c0.025-0.276 0.044-0.553 0.063-0.829 0.019-0.276 0.038-0.552 0.05-0.83 0.015-0.339 0.02-0.677 0.026-1.016 0.003-0.179 0.014-0.356 0.014-0.536 0-0.049-0.004-0.097-0.004-0.146a35.68 35.68 0 0 0-0.03-1.179c-0.007-0.182-0.008-0.365-0.017-0.546a33.491 33.491 0 0 0-0.221-2.42c-0.038-0.31-0.072-0.619-0.118-0.928-0.05-0.337-0.113-0.669-0.173-1.003-0.039-0.216-0.073-0.433-0.116-0.649-0.068-0.344-0.148-0.684-0.227-1.024-0.047-0.205-0.091-0.41-0.142-0.614a34.159 34.159 0 0 0-0.271-0.998c-0.059-0.209-0.115-0.419-0.178-0.628-0.096-0.318-0.201-0.632-0.305-0.946-0.074-0.221-0.146-0.442-0.224-0.662-0.106-0.297-0.219-0.591-0.332-0.885-0.091-0.234-0.181-0.469-0.276-0.701-0.114-0.276-0.234-0.55-0.355-0.823-0.108-0.245-0.217-0.49-0.331-0.733a31.878 31.878 0 0 0-0.375-0.766 33.42 33.42 0 0 0-0.386-0.753 34.17 34.17 0 0 0-0.4-0.726c-0.14-0.249-0.282-0.498-0.428-0.745-0.143-0.24-0.29-0.476-0.439-0.713-0.15-0.239-0.301-0.477-0.457-0.714-0.16-0.241-0.324-0.478-0.49-0.715-0.156-0.223-0.312-0.446-0.474-0.666-0.179-0.244-0.364-0.484-0.549-0.724a35.49 35.49 0 0 0-0.485-0.617 33.966 33.966 0 0 0-0.601-0.716c-0.116-0.136-0.225-0.275-0.343-0.409L848.605 668.771c-12.783-14.498-34.898-15.888-49.4-3.105-14.499 12.784-15.889 34.901-3.105 49.4l53.235 60.376h-67.728c-0.106-0.004-10.967-0.623-39.039-22.274-20.217-15.593-44.928-38.627-73.448-68.463-46.214-48.347-96.097-107.736-144.173-166.562l2.886-3.563c48.017-59.297 102.44-126.506 151.976-179.372 25.94-27.685 48.376-49.048 66.684-63.497 24.61-19.423 34.392-20.685 35.179-20.756h67.664L796.1 311.331c-12.783 14.499-11.394 36.616 3.105 49.4a34.857 34.857 0 0 0 23.134 8.748c9.697-0.001 19.35-4.008 26.267-11.853L953.11 239.103c0.118-0.134 0.227-0.273 0.343-0.409 0.203-0.237 0.405-0.474 0.601-0.716 0.165-0.204 0.325-0.411 0.485-0.617 0.185-0.239 0.37-0.479 0.549-0.724 0.162-0.22 0.318-0.443 0.474-0.666 0.166-0.237 0.331-0.475 0.49-0.716 0.156-0.236 0.307-0.473 0.456-0.712 0.149-0.237 0.296-0.473 0.439-0.714 0.147-0.247 0.288-0.495 0.428-0.744 0.136-0.241 0.271-0.483 0.401-0.727 0.132-0.249 0.259-0.5 0.385-0.751 0.127-0.254 0.254-0.509 0.375-0.767 0.114-0.243 0.223-0.488 0.331-0.733 0.121-0.273 0.241-0.546 0.355-0.822 0.096-0.232 0.186-0.466 0.276-0.7 0.114-0.294 0.227-0.588 0.333-0.886 0.078-0.219 0.15-0.44 0.223-0.66 0.105-0.315 0.21-0.63 0.306-0.948 0.063-0.208 0.119-0.417 0.178-0.625 0.094-0.332 0.187-0.664 0.271-1 0.051-0.203 0.094-0.407 0.141-0.611 0.079-0.341 0.159-0.682 0.228-1.027 0.043-0.214 0.076-0.43 0.115-0.645 0.06-0.335 0.124-0.669 0.174-1.007 0.046-0.305 0.079-0.611 0.116-0.917a34.39 34.39 0 0 0 0.222-2.43c0.01-0.181 0.011-0.365 0.017-0.547 0.015-0.393 0.028-0.786 0.03-1.179 0-0.049 0.004-0.097 0.004-0.146 0-0.18-0.011-0.356-0.014-0.535a34.512 34.512 0 0 0-0.026-1.017c-0.012-0.277-0.032-0.553-0.05-0.828a38.697 38.697 0 0 0-0.063-0.831 36.932 36.932 0 0 0-0.675-4.351 28.617 28.617 0 0 0-0.113-0.488c-0.09-0.382-0.184-0.763-0.287-1.14-0.042-0.154-0.087-0.308-0.131-0.462a34.752 34.752 0 0 0-0.339-1.124c-0.053-0.163-0.11-0.326-0.165-0.488a32.778 32.778 0 0 0-0.377-1.065c-0.07-0.187-0.147-0.372-0.22-0.559-0.128-0.322-0.255-0.643-0.392-0.961-0.098-0.229-0.205-0.454-0.308-0.681-0.124-0.27-0.245-0.542-0.375-0.808-0.134-0.275-0.278-0.547-0.42-0.819-0.112-0.215-0.22-0.431-0.337-0.643-0.171-0.312-0.352-0.619-0.532-0.926-0.1-0.17-0.197-0.342-0.299-0.511a34.23 34.23 0 0 0-0.619-0.965c-0.097-0.147-0.19-0.297-0.289-0.443a34.746 34.746 0 0 0-0.66-0.928c-0.109-0.149-0.214-0.301-0.325-0.448-0.21-0.279-0.43-0.552-0.649-0.826-0.138-0.172-0.273-0.347-0.414-0.517-0.197-0.237-0.403-0.468-0.607-0.7-0.175-0.2-0.348-0.401-0.528-0.597-0.185-0.201-0.377-0.398-0.568-0.595-0.209-0.217-0.417-0.435-0.631-0.647-0.05-0.049-0.096-0.101-0.146-0.15L846.794 88.947c-13.836-13.499-35.995-13.224-49.494 0.611-13.498 13.836-13.225 35.995 0.611 49.494l42.951 41.903H781.57c-36.938 0-82.032 31.162-150.783 104.198-49.872 52.98-103.655 119.073-151.712 178.407-48.561-53.853-109.642-108.801-169.435-151.923C251.042 269.376 167.072 219 99.818 219c-19.33 0-35 15.67-35 35s15.67 35 35 35c72.164 0 228.897 108.673 334.365 229.34-50.342 59.049-111.408 119.769-167.336 166.074-101.363 83.924-150.575 92.984-167.029 92.984-19.33 0-35 15.67-35 35s15.67 35 35 35c53.045 0 124.261-36.695 211.67-109.066 55.907-46.288 116.655-106.202 167.954-165.268 46.707 56.941 94.904 113.906 140.171 161.156 74.691 77.96 123.127 111.223 161.957 111.223h59.292l-42.951 41.903c-13.836 13.499-14.109 35.658-0.611 49.494 6.859 7.03 15.953 10.559 25.056 10.559 8.812 0 17.633-3.308 24.438-9.947l104.504-101.957c0.048-0.047 0.092-0.096 0.14-0.143 0.224-0.221 0.44-0.448 0.658-0.674 0.181-0.189 0.365-0.376 0.542-0.568 0.188-0.207 0.369-0.418 0.553-0.628z" p-id="3033" fill="#444444"></path></svg>