<?xml version="1.0" standalone="no"?><!DOCTYPE svg PUBLIC "-//W3C//DTD SVG 1.1//EN" "http://www.w3.org/Graphics/SVG/1.1/DTD/svg11.dtd"><svg t="1539056828303" class="icon" style="" viewBox="0 0 1024 1024" version="1.1" xmlns="http://www.w3.org/2000/svg" p-id="4363" xmlns:xlink="http://www.w3.org/1999/xlink" width="32" height="32"><defs><style type="text/css"></style></defs><path d="M318.84 292.397h437.179l-80.839 94.088c-12.598 14.662-10.924 36.759 3.738 49.356a34.853 34.853 0 0 0 22.793 8.453c9.849 0 19.641-4.135 26.563-12.191l130.508-151.897c0.073-0.085 0.139-0.172 0.211-0.257a35.83 35.83 0 0 0 3.368-4.737c0.123-0.208 0.243-0.418 0.361-0.629 0.151-0.268 0.301-0.537 0.446-0.809 0.105-0.198 0.205-0.397 0.306-0.596 0.147-0.291 0.294-0.583 0.434-0.879 0.082-0.174 0.159-0.35 0.238-0.526 0.147-0.325 0.293-0.65 0.43-0.98 0.05-0.122 0.096-0.245 0.145-0.368a34.776 34.776 0 0 0 1.644-5.276c0.031-0.137 0.065-0.273 0.095-0.411 0.072-0.338 0.135-0.679 0.197-1.02 0.038-0.206 0.076-0.411 0.11-0.618a34.907 34.907 0 0 0 0.233-1.682 35.193 35.193 0 0 0 0.155-1.738c0.015-0.239 0.032-0.477 0.043-0.717 0.017-0.374 0.024-0.749 0.028-1.124 0.002-0.148 0.011-0.293 0.011-0.441l-0.003-0.105a35.24 35.24 0 0 0-0.042-1.657c-0.008-0.166-0.025-0.33-0.036-0.495-0.024-0.379-0.05-0.758-0.086-1.136-0.028-0.293-0.066-0.582-0.101-0.873-0.03-0.243-0.058-0.486-0.093-0.728a34.496 34.496 0 0 0-0.158-0.98c-0.034-0.198-0.068-0.397-0.106-0.595a35.252 35.252 0 0 0-0.604-2.624c-0.04-0.148-0.084-0.295-0.126-0.443a33.813 33.813 0 0 0-0.333-1.109c-0.04-0.123-0.084-0.245-0.125-0.368-0.13-0.387-0.261-0.773-0.404-1.154-0.029-0.078-0.062-0.155-0.092-0.232a34.912 34.912 0 0 0-1.747-3.851c-0.041-0.077-0.078-0.156-0.119-0.233-0.156-0.29-0.323-0.573-0.487-0.857-0.11-0.191-0.216-0.384-0.33-0.574-0.155-0.258-0.32-0.511-0.482-0.765-0.133-0.209-0.263-0.418-0.4-0.625-0.163-0.244-0.334-0.483-0.503-0.723-0.147-0.209-0.292-0.418-0.444-0.624-0.174-0.236-0.354-0.466-0.534-0.697-0.158-0.203-0.314-0.406-0.476-0.606-0.183-0.225-0.372-0.446-0.561-0.667-0.119-0.139-0.231-0.281-0.352-0.418L727.984 86.171c-12.779-14.502-34.896-15.897-49.399-3.117-14.502 12.78-15.897 34.897-3.116 49.399l79.267 89.943H318.84c-57.1 0-106.206 14.177-145.954 42.136-32.479 22.846-58.292 54.576-76.725 94.309-28.289 60.98-31.343 123.969-31.343 148.22v26.874c0 19.33 15.67 35 35 35s35-15.67 35-35v-26.874c0-50.357 13.27-214.664 184.022-214.664zM925.671 416.354c-19.33 0-35 15.67-35 35v82.581c0 31.982-12.145 81.981-39.275 121.584-34.05 49.703-84.406 74.904-149.669 74.904H254.772l89.9-98.339c13.042-14.267 12.05-36.405-2.216-49.447-14.268-13.044-36.406-12.052-49.448 2.217L149.521 741.809l-0.027 0.031c-0.308 0.337-0.605 0.685-0.9 1.034-0.071 0.085-0.147 0.167-0.218 0.252-0.292 0.353-0.573 0.715-0.852 1.08-0.066 0.087-0.138 0.171-0.203 0.259-0.223 0.298-0.435 0.605-0.649 0.911-0.11 0.158-0.228 0.312-0.335 0.471-0.131 0.194-0.252 0.394-0.38 0.591-0.178 0.275-0.361 0.549-0.531 0.828-0.112 0.183-0.214 0.373-0.322 0.559-0.173 0.297-0.35 0.592-0.513 0.893-0.146 0.269-0.281 0.545-0.42 0.817-0.113 0.221-0.232 0.44-0.34 0.663-0.163 0.337-0.314 0.681-0.466 1.025-0.072 0.162-0.15 0.322-0.219 0.485-0.157 0.369-0.302 0.744-0.447 1.119-0.054 0.14-0.113 0.279-0.165 0.419-0.139 0.375-0.266 0.756-0.393 1.137-0.048 0.145-0.1 0.288-0.146 0.433-0.118 0.371-0.224 0.747-0.33 1.123-0.045 0.159-0.093 0.317-0.135 0.477-0.095 0.357-0.18 0.719-0.263 1.08-0.043 0.185-0.088 0.37-0.128 0.556-0.072 0.337-0.136 0.677-0.198 1.017-0.04 0.219-0.081 0.437-0.117 0.656a36.11 36.11 0 0 0-0.139 0.941 33.83 33.83 0 0 0-0.319 4.283c-0.002 0.159-0.012 0.317-0.012 0.476 0 0.083 0.006 0.165 0.006 0.247 0.002 0.335 0.013 0.67 0.025 1.006 0.009 0.244 0.014 0.489 0.028 0.731 0.017 0.299 0.044 0.597 0.068 0.895 0.023 0.278 0.041 0.556 0.07 0.832 0.019 0.181 0.047 0.362 0.069 0.543 0.174 1.434 0.43 2.841 0.771 4.216l0.019 0.081c0.106 0.424 0.226 0.842 0.347 1.26 0.035 0.12 0.066 0.241 0.103 0.361 0.112 0.37 0.235 0.735 0.359 1.099 0.057 0.169 0.111 0.338 0.171 0.506 0.116 0.324 0.24 0.643 0.365 0.962 0.082 0.21 0.162 0.42 0.248 0.628 0.117 0.282 0.24 0.559 0.364 0.837 0.107 0.241 0.214 0.483 0.326 0.722 0.116 0.247 0.239 0.49 0.361 0.733 0.133 0.265 0.266 0.53 0.406 0.793 0.116 0.217 0.236 0.431 0.357 0.645 0.156 0.279 0.314 0.557 0.479 0.833 0.12 0.2 0.243 0.397 0.367 0.594 0.174 0.279 0.35 0.557 0.533 0.831 0.129 0.194 0.262 0.385 0.395 0.576 0.186 0.267 0.373 0.534 0.567 0.797 0.145 0.197 0.295 0.391 0.444 0.585 0.19 0.247 0.381 0.493 0.578 0.736 0.168 0.206 0.34 0.408 0.512 0.611 0.19 0.223 0.38 0.446 0.577 0.666 0.189 0.211 0.383 0.418 0.578 0.625 0.133 0.142 0.26 0.288 0.396 0.428L293.73 937.593c6.863 7.068 15.983 10.619 25.114 10.619 8.784 0 17.578-3.287 24.377-9.889 13.869-13.465 14.196-35.623 0.731-49.492l-85.835-88.408h443.61c111.786 0 174.495-57.285 207.417-105.342 37.991-55.455 51.527-119.604 51.527-161.146v-82.581c0-19.33-15.67-35-35-35z" p-id="4364" fill="#444444"></path></svg>